<svg xmlns="http://www.w3.org/2000/svg" xmlns:xlink="http://www.w3.org/1999/xlink">
  <symbol id="arrow-down">
    <path fill="#bfc7d8"
          d="M.158.16a.562.562 0 0 1 .786 0l2.539 2.49L6.02.16a.562.562 0 0 1 .786 0 .542.542 0 0 1 0 .775L3.876 3.81a.562.562 0 0 1-.787 0L.158.935a.542.542 0 0 1 0-.775z"/>
  </symbol>
  <symbol id="arrow">
    <path fill="#fff" d="M2.493 4.005L-.01.011h5.006z"/>
  </symbol>
  <symbol id="Grid">
    <path fill="#475364"
          d="M1 0h5a1 1 0 0 1 1 1v5a1 1 0 0 1-1 1H1a1 1 0 0 1-1-1V1a1 1 0 0 1 1-1zm9 0h5a1 1 0 0 1 1 1v5a1 1 0 0 1-1 1h-5a1 1 0 0 1-1-1V1a1 1 0 0 1 1-1zM1 9h5a1 1 0 0 1 1 1v5a1 1 0 0 1-1 1H1a1 1 0 0 1-1-1v-5a1 1 0 0 1 1-1zm9 0h5a1 1 0 0 1 1 1v5a1 1 0 0 1-1 1h-5a1 1 0 0 1-1-1v-5a1 1 0 0 1 1-1zM2 5h3V2H2zm9 0h3V2h-3zm-9 9h3v-3H2zm9 0h3v-3h-3z"
    />
  </symbol>
  <symbol id="pencil_icon">
    <path fill="#353c48"
          d="M15.721 1.943c.38.38.38.995 0 1.375L14.29 4.749a.432.432 0 0 1-.611 0l-2.424-2.424a.432.432 0 0 1 0-.61L12.687.283a.971.971 0 0 1 1.374 0zM13.16 5.268a.432.432 0 0 1 0 .611l-7.927 7.927a.432.432 0 0 1-.61 0l-2.424-2.424a.431.431 0 0 1 0-.61l7.927-7.927a.431.431 0 0 1 .61 0zm-9.116 8.997a.324.324 0 0 1 0 .458c-.093.09-3.536 1.244-3.66 1.285a.322.322 0 0 1-.388-.385c.043-.131 1.193-3.57 1.286-3.662a.324.324 0 0 1 .458 0z"
    />
  </symbol>
  <symbol id="search">
    <path fill="#9fa9ba"
          d="M15.718 15.718a1 1 0 0 1-1.415 0l-3.15-3.15c-2.74 2.05-6.629 1.855-9.12-.636a7 7 0 1 1 9.899-9.9c2.491 2.492 2.686 6.38.636 9.122l3.15 3.15a1 1 0 0 1 0 1.414zm-5.2-12.271a5 5 0 1 0-7.071 7.07 5 5 0 0 0 7.07-7.07z"/>
  </symbol>
  <symbol id="Settings">
    <path fill="#475364"
          d="M16 7v2h-2.09a5.94 5.94 0 0 1-.995 2.407l2.097 1.824-1.444 1.782-2.312-2.01A5.959 5.959 0 0 1 9 13.899V16H7v-2.09a5.924 5.924 0 0 1-2.26-.904l-2.308 2.007-1.444-1.782 2.1-1.827A5.971 5.971 0 0 1 2.102 9H0V7h2.09c.15-.886.502-1.7.995-2.407L.988 2.77 2.432.987l2.311 2.01A5.96 5.96 0 0 1 7 2.101V0h2v2.1a5.96 5.96 0 0 1 2.256.897l2.312-2.01 1.444 1.782-2.097 1.824c.493.708.845 1.52.994 2.407zM8 5a3 3 0 1 0 0 6 3 3 0 0 0 0-6z"/>
  </symbol>
  <symbol id="Sort-marks">
    <path fill="#8492b4" d="M8.5 7l-4 4-4-4zm-8-3l4-4 4 4z"/>
  </symbol>
</svg>
