<svg xmlns="http://www.w3.org/2000/svg" width="16" height="16" viewBox="0 0 16 16"><path fill="#353c48" d="M15.721 1.943c.38.38.38.995 0 1.375L14.29 4.749a.432.432 0 0 1-.611 0l-2.424-2.424a.432.432 0 0 1 0-.61L12.687.283a.971.971 0 0 1 1.374 0zM13.16 5.268a.432.432 0 0 1 0 .611l-7.927 7.927a.432.432 0 0 1-.61 0l-2.424-2.424a.431.431 0 0 1 0-.61l7.927-7.927a.431.431 0 0 1 .61 0zm-9.116 8.997a.324.324 0 0 1 0 .458c-.093.09-3.536 1.244-3.66 1.285a.322.322 0 0 1-.388-.385c.043-.131 1.193-3.57 1.286-3.662a.324.324 0 0 1 .458 0z" opacity="-1"/></svg>